<svg xmlns:xlink="http://www.w3.org/1999/xlink"  xmlns="http://www.w3.org/2000/svg" viewBox="0 0 722 1040" width="722" height="1040" preserveAspectRatio="xMidYMid slice" style="width: 100%; height: 100%; transform: translate3d(0px, 0px, 0px);"><defs><clipPath id="__lottie_element_188"><rect width="722" height="1040" x="0" y="0"></rect></clipPath><clipPath id="__lottie_element_193"><path d="M0,0 L197,0 L197,136 L0,136z"></path></clipPath><clipPath id="__lottie_element_199"><path d="M0,0 L197,0 L197,138 L0,138z"></path></clipPath><clipPath id="__lottie_element_210"><path d="M0,0 L197,0 L197,138 L0,138z"></path></clipPath><clipPath id="__lottie_element_221"><path d="M0,0 L197,0 L197,137 L0,137z"></path></clipPath><clipPath id="__lottie_element_232"><path d="M0,0 L197,0 L197,136 L0,136z"></path></clipPath><clipPath id="__lottie_element_238"><path d="M0,0 L197,0 L197,138 L0,138z"></path></clipPath><clipPath id="__lottie_element_249"><path d="M0,0 L197,0 L197,138 L0,138z"></path></clipPath><clipPath id="__lottie_element_260"><path d="M0,0 L197,0 L197,137 L0,137z"></path></clipPath><clipPath id="__lottie_element_271"><path d="M0,0 L401,0 L401,282 L0,282z"></path></clipPath></defs><g clip-path="url(#__lottie_element_188)"><g transform="matrix(1,0,0,1,0,0)" opacity="1" style="display: block;"><path fill="rgb(0,0,0)" fill-opacity="1" d=" M722,0 C722,0 0,0 0,0 C0,0 0,1040 0,1040 C0,1040 722,1040 722,1040 C722,1040 722,0 722,0z"></path></g><g clip-path="url(#__lottie_element_271)" transform="matrix(1,0,0,1,161.5,380)" opacity="1" style="display: block;"><g transform="matrix(1.333299994468689,0,0,1.333299994468689,0,0)" opacity="1" style="display: block;"><g opacity="1" transform="matrix(1,0,0,1,0,0)"><g opacity="1" transform="matrix(1,0,0,1,0,0)"><path fill="rgb(255,255,255)" fill-opacity="1" d=" M128.14999389648438,103.12999725341797 C131.17999267578125,103.12999725341797 134.22999572753906,102.4000015258789 137.02999877929688,100.93000030517578 C143.3000030517578,97.62999725341797 147.1999969482422,91.16000366210938 147.1999969482422,84.08000183105469 C147.1999969482422,84.08000183105469 147.1999969482422,0.07000000029802322 147.1999969482422,0.07000000029802322 C147.1999969482422,0.07000000029802322 117.69999694824219,0.07000000029802322 117.69999694824219,0.07000000029802322 C117.69999694824219,0.07000000029802322 117.69999694824219,64.19000244140625 117.69999694824219,64.19000244140625 C117.69999694824219,64.19000244140625 31.43000030517578,4.980000019073486 31.43000030517578,4.980000019073486 C26,0.550000011920929 18.559999465942383,-0.550000011920929 12.020000457763672,2.2100000381469727 C4.949999809265137,5.190000057220459 0.3799999952316284,12.069999694824219 0.3799999952316284,19.75 C0.3799999952316284,19.75 0.3799999952316284,102.47000122070312 0.3799999952316284,102.47000122070312 C0.3799999952316284,102.47000122070312 29.8799991607666,102.47000122070312 29.8799991607666,102.47000122070312 C29.8799991607666,102.47000122070312 29.8799991607666,39.709999084472656 29.8799991607666,39.709999084472656 C29.8799991607666,39.709999084472656 117.37999725341797,99.77999877929688 117.37999725341797,99.77999877929688 C120.62000274658203,102 124.37999725341797,103.12999725341797 128.14999389648438,103.12999725341797 C128.14999389648438,103.12999725341797 128.14999389648438,103.12999725341797 128.14999389648438,103.12999725341797z"></path></g><g opacity="1" transform="matrix(1,0,0,1,0,0)"><g opacity="1" transform="matrix(1,0,0,1,0,0)"><path fill="rgb(255,255,255)" fill-opacity="1" d=" M172.5800018310547,210.8300018310547 C169.5500030517578,210.8300018310547 166.50999450683594,210.11000061035156 163.7100067138672,208.6300048828125 C157.44000244140625,205.3300018310547 153.5399932861328,198.8699951171875 153.5399932861328,191.77999877929688 C153.5399932861328,191.77999877929688 153.5399932861328,107.77999877929688 153.5399932861328,107.77999877929688 C153.5399932861328,107.77999877929688 183.0399932861328,107.77999877929688 183.0399932861328,107.77999877929688 C183.0399932861328,107.77999877929688 183.0399932861328,171.88999938964844 183.0399932861328,171.88999938964844 C183.0399932861328,171.88999938964844 269.29998779296875,112.68000030517578 269.29998779296875,112.68000030517578 C274.7300109863281,108.25 282.1600036621094,107.1500015258789 288.7099914550781,109.91000366210938 C295.7799987792969,112.88999938964844 300.3599853515625,119.77999877929688 300.3599853515625,127.44999694824219 C300.3599853515625,127.44999694824219 300.3599853515625,210.1699981689453 300.3599853515625,210.1699981689453 C300.3599853515625,210.1699981689453 270.8500061035156,210.1699981689453 270.8500061035156,210.1699981689453 C270.8500061035156,210.1699981689453 270.8500061035156,147.41000366210938 270.8500061035156,147.41000366210938 C270.8500061035156,147.41000366210938 183.35000610351562,207.47000122070312 183.35000610351562,207.47000122070312 C180.11000061035156,209.69000244140625 176.35000610351562,210.82000732421875 172.5800018310547,210.82000732421875 C172.5800018310547,210.82000732421875 172.5800018310547,210.8300018310547 172.5800018310547,210.8300018310547z"></path></g></g></g></g><g transform="matrix(1,0,0,1,0,0)" opacity="1" style="display: block;"><path fill="rgb(0,0,0)" fill-opacity="0" d=" M401,0 C401,0 0,0 0,0 C0,0 0,282 0,282 C0,282 401,282 401,282 C401,282 401,0 401,0z"></path></g></g><g clip-path="url(#__lottie_element_232)" transform="matrix(1,0,0,1,365.5,380)" opacity="1" style="display: block;"><g clip-path="url(#__lottie_element_260)" transform="matrix(1,0,0,1,0,-81.76786041259766)" opacity="1" style="display: block;"><g transform="matrix(1.333299994468689,0,0,1.333299994468689,0,0)" opacity="1" style="display: block;"><g opacity="1" transform="matrix(1,0,0,1,0,0)"><g opacity="1" transform="matrix(1,0,0,1,0,0)"><path fill-rule="evenodd" fill="rgb(255,255,255)" fill-opacity="1" d=" M117.8499984741211,35.619998931884766 C117.8499984741211,32.369998931884766 115.20999908447266,29.719999313354492 111.95999908447266,29.719999313354492 C111.95999908447266,29.719999313354492 35.619998931884766,29.719999313354492 35.619998931884766,29.719999313354492 C32.369998931884766,29.719999313354492 29.719999313354492,32.369998931884766 29.719999313354492,35.619998931884766 C29.719999313354492,35.619998931884766 29.719999313354492,66.97000122070312 29.719999313354492,66.97000122070312 C29.719999313354492,70.22000122070312 32.369998931884766,72.86000061035156 35.619998931884766,72.86000061035156 C35.619998931884766,72.86000061035156 111.95999908447266,72.86000061035156 111.95999908447266,72.86000061035156 C115.20999908447266,72.86000061035156 117.8499984741211,70.22000122070312 117.8499984741211,66.97000122070312 C117.8499984741211,66.97000122070312 117.8499984741211,35.619998931884766 117.8499984741211,35.619998931884766z M35.61000061035156,0 C15.970000267028809,0 0,15.979999542236328 0,35.619998931884766 C0,35.619998931884766 0,66.97000122070312 0,66.97000122070312 C0,86.61000061035156 15.970000267028809,102.58999633789062 35.61000061035156,102.58999633789062 C35.61000061035156,102.58999633789062 111.95999908447266,102.58999633789062 111.95999908447266,102.58999633789062 C131.60000610351562,102.58999633789062 147.57000732421875,86.61000061035156 147.57000732421875,66.97000122070312 C147.57000732421875,66.97000122070312 147.57000732421875,35.619998931884766 147.57000732421875,35.619998931884766 C147.57000732421875,15.979999542236328 131.60000610351562,0 111.95999908447266,0 C111.95999908447266,0 35.61000061035156,0 35.61000061035156,0z"></path></g></g></g><g transform="matrix(1,0,0,1,0,0)" opacity="1" style="display: block;"><path fill="rgb(0,0,0)" fill-opacity="0" d=" M197,0 C197,0 0,0 0,0 C0,0 0,137 0,137 C0,137 197,137 197,137 C197,137 197,0 197,0z"></path></g></g><g clip-path="url(#__lottie_element_249)" transform="matrix(1,0,0,1,0,61.232139587402344)" opacity="1" style="display: block;"><g transform="matrix(1.333299994468689,0,0,1.333299994468689,0,0)" opacity="1" style="display: block;"><g opacity="1" transform="matrix(1,0,0,1,0,0)"><g opacity="1" transform="matrix(1,0,0,1,0,0)"><path fill-rule="evenodd" fill="rgb(255,255,255)" fill-opacity="1" d=" M117.8499984741211,36.209999084472656 C117.8499984741211,32.959999084472656 115.20999908447266,30.309999465942383 111.95999908447266,30.309999465942383 C111.95999908447266,30.309999465942383 35.619998931884766,30.309999465942383 35.619998931884766,30.309999465942383 C32.369998931884766,30.309999465942383 29.719999313354492,32.959999084472656 29.719999313354492,36.209999084472656 C29.719999313354492,36.209999084472656 29.719999313354492,67.55000305175781 29.719999313354492,67.55000305175781 C29.719999313354492,70.80000305175781 32.369998931884766,73.44999694824219 35.619998931884766,73.44999694824219 C35.619998931884766,73.44999694824219 111.95999908447266,73.44999694824219 111.95999908447266,73.44999694824219 C115.20999908447266,73.44999694824219 117.8499984741211,70.80000305175781 117.8499984741211,67.55000305175781 C117.8499984741211,67.55000305175781 117.8499984741211,36.209999084472656 117.8499984741211,36.209999084472656z M35.61000061035156,0.5899999737739563 C15.970000267028809,0.5899999737739563 0,16.56999969482422 0,36.209999084472656 C0,36.209999084472656 0,67.55000305175781 0,67.55000305175781 C0,87.19000244140625 15.970000267028809,103.18000030517578 35.61000061035156,103.18000030517578 C35.61000061035156,103.18000030517578 111.95999908447266,103.18000030517578 111.95999908447266,103.18000030517578 C131.60000610351562,103.18000030517578 147.57000732421875,87.19000244140625 147.57000732421875,67.55000305175781 C147.57000732421875,67.55000305175781 147.57000732421875,36.209999084472656 147.57000732421875,36.209999084472656 C147.57000732421875,16.56999969482422 131.60000610351562,0.5899999737739563 111.95999908447266,0.5899999737739563 C111.95999908447266,0.5899999737739563 35.61000061035156,0.5899999737739563 35.61000061035156,0.5899999737739563z"></path></g></g></g><g transform="matrix(1,0,0,1,0,0)" opacity="1" style="display: block;"><path fill="rgb(0,0,0)" fill-opacity="0" d=" M197,0 C197,0 0,0 0,0 C0,0 0,138 0,138 C0,138 197,138 197,138 C197,138 197,0 197,0z"></path></g></g><g clip-path="url(#__lottie_element_238)" transform="matrix(1,0,0,1,0,205.23214721679688)" opacity="1" style="display: block;"><g transform="matrix(1.333299994468689,0,0,1.333299994468689,0,0)" opacity="1" style="display: block;"><g opacity="1" transform="matrix(1,0,0,1,0,0)"><g opacity="1" transform="matrix(1,0,0,1,0,0)"><path fill-rule="evenodd" fill="rgb(255,255,255)" fill-opacity="1" d=" M117.8499984741211,36.040000915527344 C117.8499984741211,32.790000915527344 115.20999908447266,30.149999618530273 111.95999908447266,30.149999618530273 C111.95999908447266,30.149999618530273 35.619998931884766,30.149999618530273 35.619998931884766,30.149999618530273 C32.369998931884766,30.149999618530273 29.719999313354492,32.790000915527344 29.719999313354492,36.040000915527344 C29.719999313354492,36.040000915527344 29.719999313354492,67.38999938964844 29.719999313354492,67.38999938964844 C29.719999313354492,70.63999938964844 32.369998931884766,73.29000091552734 35.619998931884766,73.29000091552734 C35.619998931884766,73.29000091552734 111.95999908447266,73.29000091552734 111.95999908447266,73.29000091552734 C115.20999908447266,73.29000091552734 117.8499984741211,70.63999938964844 117.8499984741211,67.38999938964844 C117.8499984741211,67.38999938964844 117.8499984741211,36.040000915527344 117.8499984741211,36.040000915527344z M35.61000061035156,0.4300000071525574 C15.970000267028809,0.4300000071525574 0,16.399999618530273 0,36.040000915527344 C0,36.040000915527344 0,67.38999938964844 0,67.38999938964844 C0,87.02999877929688 15.970000267028809,103.01000213623047 35.61000061035156,103.01000213623047 C35.61000061035156,103.01000213623047 111.95999908447266,103.01000213623047 111.95999908447266,103.01000213623047 C131.60000610351562,103.01000213623047 147.57000732421875,87.02999877929688 147.57000732421875,67.38999938964844 C147.57000732421875,67.38999938964844 147.57000732421875,36.040000915527344 147.57000732421875,36.040000915527344 C147.57000732421875,16.399999618530273 131.60000610351562,0.4300000071525574 111.95999908447266,0.4300000071525574 C111.95999908447266,0.4300000071525574 35.61000061035156,0.4300000071525574 35.61000061035156,0.4300000071525574z"></path></g></g></g><g transform="matrix(1,0,0,1,0,0)" opacity="1" style="display: block;"><path fill="rgb(0,0,0)" fill-opacity="0" d=" M197,0 C197,0 0,0 0,0 C0,0 0,138 0,138 C0,138 197,138 197,138 C197,138 197,0 197,0z"></path></g></g></g><g clip-path="url(#__lottie_element_193)" transform="matrix(1,0,0,1,161.5,524)" opacity="1" style="display: block;"><g clip-path="url(#__lottie_element_221)" transform="matrix(1,0,0,1,0,-206.23214721679688)" opacity="1" style="display: block;"><g transform="matrix(1.333299994468689,0,0,1.333299994468689,0,0)" opacity="1" style="display: block;"><g opacity="1" transform="matrix(1,0,0,1,0,0)"><g opacity="1" transform="matrix(1,0,0,1,0,0)"><path fill-rule="evenodd" fill="rgb(255,255,255)" fill-opacity="1" d=" M117.8499984741211,35.619998931884766 C117.8499984741211,32.369998931884766 115.20999908447266,29.719999313354492 111.95999908447266,29.719999313354492 C111.95999908447266,29.719999313354492 35.619998931884766,29.719999313354492 35.619998931884766,29.719999313354492 C32.369998931884766,29.719999313354492 29.719999313354492,32.369998931884766 29.719999313354492,35.619998931884766 C29.719999313354492,35.619998931884766 29.719999313354492,66.97000122070312 29.719999313354492,66.97000122070312 C29.719999313354492,70.22000122070312 32.369998931884766,72.86000061035156 35.619998931884766,72.86000061035156 C35.619998931884766,72.86000061035156 111.95999908447266,72.86000061035156 111.95999908447266,72.86000061035156 C115.20999908447266,72.86000061035156 117.8499984741211,70.22000122070312 117.8499984741211,66.97000122070312 C117.8499984741211,66.97000122070312 117.8499984741211,35.619998931884766 117.8499984741211,35.619998931884766z M35.61000061035156,0 C15.970000267028809,0 0,15.979999542236328 0,35.619998931884766 C0,35.619998931884766 0,66.97000122070312 0,66.97000122070312 C0,86.61000061035156 15.970000267028809,102.58999633789062 35.61000061035156,102.58999633789062 C35.61000061035156,102.58999633789062 111.95999908447266,102.58999633789062 111.95999908447266,102.58999633789062 C131.60000610351562,102.58999633789062 147.57000732421875,86.61000061035156 147.57000732421875,66.97000122070312 C147.57000732421875,66.97000122070312 147.57000732421875,35.619998931884766 147.57000732421875,35.619998931884766 C147.57000732421875,15.979999542236328 131.60000610351562,0 111.95999908447266,0 C111.95999908447266,0 35.61000061035156,0 35.61000061035156,0z"></path></g></g></g><g transform="matrix(1,0,0,1,0,0)" opacity="1" style="display: block;"><path fill="rgb(0,0,0)" fill-opacity="0" d=" M197,0 C197,0 0,0 0,0 C0,0 0,137 0,137 C0,137 197,137 197,137 C197,137 197,0 197,0z"></path></g></g><g clip-path="url(#__lottie_element_210)" transform="matrix(1,0,0,1,0,-63.232147216796875)" opacity="1" style="display: block;"><g transform="matrix(1.333299994468689,0,0,1.333299994468689,0,0)" opacity="1" style="display: block;"><g opacity="1" transform="matrix(1,0,0,1,0,0)"><g opacity="1" transform="matrix(1,0,0,1,0,0)"><path fill-rule="evenodd" fill="rgb(255,255,255)" fill-opacity="1" d=" M117.8499984741211,36.209999084472656 C117.8499984741211,32.959999084472656 115.20999908447266,30.309999465942383 111.95999908447266,30.309999465942383 C111.95999908447266,30.309999465942383 35.619998931884766,30.309999465942383 35.619998931884766,30.309999465942383 C32.369998931884766,30.309999465942383 29.719999313354492,32.959999084472656 29.719999313354492,36.209999084472656 C29.719999313354492,36.209999084472656 29.719999313354492,67.55000305175781 29.719999313354492,67.55000305175781 C29.719999313354492,70.80000305175781 32.369998931884766,73.44999694824219 35.619998931884766,73.44999694824219 C35.619998931884766,73.44999694824219 111.95999908447266,73.44999694824219 111.95999908447266,73.44999694824219 C115.20999908447266,73.44999694824219 117.8499984741211,70.80000305175781 117.8499984741211,67.55000305175781 C117.8499984741211,67.55000305175781 117.8499984741211,36.209999084472656 117.8499984741211,36.209999084472656z M35.61000061035156,0.5899999737739563 C15.970000267028809,0.5899999737739563 0,16.56999969482422 0,36.209999084472656 C0,36.209999084472656 0,67.55000305175781 0,67.55000305175781 C0,87.19000244140625 15.970000267028809,103.18000030517578 35.61000061035156,103.18000030517578 C35.61000061035156,103.18000030517578 111.95999908447266,103.18000030517578 111.95999908447266,103.18000030517578 C131.60000610351562,103.18000030517578 147.57000732421875,87.19000244140625 147.57000732421875,67.55000305175781 C147.57000732421875,67.55000305175781 147.57000732421875,36.209999084472656 147.57000732421875,36.209999084472656 C147.57000732421875,16.56999969482422 131.60000610351562,0.5899999737739563 111.95999908447266,0.5899999737739563 C111.95999908447266,0.5899999737739563 35.61000061035156,0.5899999737739563 35.61000061035156,0.5899999737739563z"></path></g></g></g><g transform="matrix(1,0,0,1,0,0)" opacity="1" style="display: block;"><path fill="rgb(0,0,0)" fill-opacity="0" d=" M197,0 C197,0 0,0 0,0 C0,0 0,138 0,138 C0,138 197,138 197,138 C197,138 197,0 197,0z"></path></g></g><g clip-path="url(#__lottie_element_199)" transform="matrix(1,0,0,1,0,80.76785278320312)" opacity="1" style="display: block;"><g transform="matrix(1.333299994468689,0,0,1.333299994468689,0,0)" opacity="1" style="display: block;"><g opacity="1" transform="matrix(1,0,0,1,0,0)"><g opacity="1" transform="matrix(1,0,0,1,0,0)"><path fill-rule="evenodd" fill="rgb(255,255,255)" fill-opacity="1" d=" M117.8499984741211,36.040000915527344 C117.8499984741211,32.790000915527344 115.20999908447266,30.149999618530273 111.95999908447266,30.149999618530273 C111.95999908447266,30.149999618530273 35.619998931884766,30.149999618530273 35.619998931884766,30.149999618530273 C32.369998931884766,30.149999618530273 29.719999313354492,32.790000915527344 29.719999313354492,36.040000915527344 C29.719999313354492,36.040000915527344 29.719999313354492,67.38999938964844 29.719999313354492,67.38999938964844 C29.719999313354492,70.63999938964844 32.369998931884766,73.29000091552734 35.619998931884766,73.29000091552734 C35.619998931884766,73.29000091552734 111.95999908447266,73.29000091552734 111.95999908447266,73.29000091552734 C115.20999908447266,73.29000091552734 117.8499984741211,70.63999938964844 117.8499984741211,67.38999938964844 C117.8499984741211,67.38999938964844 117.8499984741211,36.040000915527344 117.8499984741211,36.040000915527344z M35.61000061035156,0.4300000071525574 C15.970000267028809,0.4300000071525574 0,16.399999618530273 0,36.040000915527344 C0,36.040000915527344 0,67.38999938964844 0,67.38999938964844 C0,87.02999877929688 15.970000267028809,103.01000213623047 35.61000061035156,103.01000213623047 C35.61000061035156,103.01000213623047 111.95999908447266,103.01000213623047 111.95999908447266,103.01000213623047 C131.60000610351562,103.01000213623047 147.57000732421875,87.02999877929688 147.57000732421875,67.38999938964844 C147.57000732421875,67.38999938964844 147.57000732421875,36.040000915527344 147.57000732421875,36.040000915527344 C147.57000732421875,16.399999618530273 131.60000610351562,0.4300000071525574 111.95999908447266,0.4300000071525574 C111.95999908447266,0.4300000071525574 35.61000061035156,0.4300000071525574 35.61000061035156,0.4300000071525574z"></path></g></g></g><g transform="matrix(1,0,0,1,0,0)" opacity="1" style="display: block;"><path fill="rgb(0,0,0)" fill-opacity="0" d=" M197,0 C197,0 0,0 0,0 C0,0 0,138 0,138 C0,138 197,138 197,138 C197,138 197,0 197,0z"></path></g></g></g></g></svg>