<svg xmlns="http://www.w3.org/2000/svg"  xmlns:xlink="http://www.w3.org/1999/xlink"  width="120" height="95" viewBox="0 0 120 95" fill="none" id="svg239431540_632">
<path fill-rule="evenodd" clip-rule="evenodd" d="M60.2918 47.5613C60.2918 68.6071 47.8134 86.674 29.9892 94.5076V53.3082C27.9531 71.8558 16.1788 87.3972 0 94.5076V0.628957C16.1788 7.73934 27.9531 23.2694 29.9892 41.8149V0.628906C47.8134 8.46247 60.2918 26.5155 60.2918 47.5613ZM90.8052 0.628906C72.9809 8.46132 60.5026 26.5255 60.5026 47.5682C60.5026 68.611 72.9809 86.6614 90.8052 94.5076V58.2998C94.2276 74.6148 105.294 88.0341 120 94.5076V0.628906C105.294 7.09095 94.2276 20.5177 90.8052 36.8356V0.628906Z" fill="#080303"></path>
</svg>