<svg xmlns:xlink="http://www.w3.org/1999/xlink" xmlns="http://www.w3.org/2000/svg" width="341" height="116" viewBox="-1 -1 341 116" fill="none" id="svg-1869080941_4685">
<path d="M309.543 90.9923C303.343 90.9923 297.846 89.6283 293.051 86.9003C288.256 84.0897 284.495 80.163 281.767 75.1203C279.122 70.0777 277.799 64.291 277.799 57.7603C277.799 51.2297 279.122 45.4843 281.767 40.5243C284.495 35.4817 288.256 31.5963 293.051 28.8683C297.846 26.0577 303.343 24.6523 309.543 24.6523C314.751 24.6523 319.38 25.5617 323.431 27.3803C327.564 29.199 330.912 31.927 333.475 35.5643C336.12 39.2017 337.815 43.6243 338.559 48.8323H325.291C324.629 45.195 322.852 42.219 319.959 39.9043C317.148 37.5897 313.759 36.4323 309.791 36.4323C306.153 36.4323 302.971 37.3003 300.243 39.0363C297.515 40.7723 295.365 43.2937 293.795 46.6003C292.307 49.8243 291.563 53.5443 291.563 57.7603C291.563 64.2083 293.216 69.4163 296.523 73.3843C299.912 77.2697 304.335 79.2123 309.791 79.2123C313.842 79.2123 317.231 78.0963 319.959 75.8643C322.769 73.6323 324.547 70.4497 325.291 66.3163H338.559C337.319 74.5003 334.136 80.659 329.011 84.7923C323.885 88.9257 317.396 90.9923 309.543 90.9923Z" fill="black"></path>
<path d="M256.776 25.6446H270.292V90.0006H256.776V25.6446ZM256.776 78.5926H270.292V90.0006H256.776V78.5926ZM256.776 25.6446H265.828V37.0526H256.776V25.6446ZM256.032 0.224609H271.16V15.4766H256.032V0.224609Z" fill="black"></path>
<path d="M242.706 90.9918C236.092 90.9918 230.884 89.2558 227.082 85.7838C223.279 82.3118 221.378 77.2278 221.378 70.5318V37.0518H209.97V25.6438H221.378V6.42383H234.894V25.6438H250.518V37.0518H234.894V69.4158C234.894 72.5572 235.72 74.9958 237.374 76.7318C239.027 78.3852 241.259 79.2118 244.07 79.2118C245.227 79.2118 246.343 79.1292 247.418 78.9638C248.575 78.7158 249.608 78.4678 250.518 78.2198V89.9998C248.12 90.6612 245.516 90.9918 242.706 90.9918Z" fill="black"></path>
<path d="M146.634 25.6443H160.15V33.9523C161.968 31.2243 164.655 28.9923 168.21 27.2563C171.847 25.5203 175.815 24.6523 180.114 24.6523C186.231 24.6523 191.563 26.0577 196.11 28.8683C200.739 31.679 204.252 35.6057 206.65 40.6483C209.047 45.6083 210.246 51.3123 210.246 57.7603C210.246 64.2083 208.964 69.9537 206.402 74.9963C203.922 79.9563 200.326 83.883 195.614 86.7763C190.984 89.587 185.528 90.9923 179.246 90.9923C175.443 90.9923 171.806 90.207 168.334 88.6363C164.862 87.0657 162.134 84.999 160.15 82.4363V113.188H146.634V25.6443ZM177.882 79.2123C181.602 79.2123 184.867 78.3443 187.678 76.6083C190.488 74.7897 192.638 72.2683 194.126 69.0443C195.696 65.8203 196.482 62.059 196.482 57.7603C196.482 53.5443 195.696 49.8243 194.126 46.6003C192.638 43.3763 190.488 40.8963 187.678 39.1603C184.867 37.3417 181.602 36.4323 177.882 36.4323C174.244 36.4323 170.979 37.3417 168.086 39.1603C165.275 40.8963 163.084 43.3763 161.514 46.6003C160.026 49.8243 159.282 53.5443 159.282 57.7603C159.282 62.059 160.026 65.8203 161.514 69.0443C163.084 72.2683 165.275 74.7897 168.086 76.6083C170.979 78.3443 174.244 79.2123 177.882 79.2123Z" fill="black"></path>
<path d="M102.352 90.9923C98.0536 90.9923 94.2096 90.207 90.8203 88.6363C87.5136 87.0657 84.9096 84.875 83.0082 82.0643C81.1069 79.2537 80.1562 76.071 80.1562 72.5163C80.1562 66.9777 82.0576 62.5137 85.8603 59.1243C89.6629 55.735 95.1189 53.5443 102.228 52.5523L115.992 50.8163C117.811 50.4857 119.175 49.907 120.084 49.0803C121.076 48.171 121.572 46.931 121.572 45.3603C121.572 42.5497 120.332 40.1937 117.852 38.2923C115.455 36.391 112.19 35.4403 108.056 35.4403C104.088 35.4403 100.823 36.4323 98.2603 38.4163C95.6976 40.4003 94.2509 43.1283 93.9202 46.6003H80.6523C81.1483 42.1363 82.5536 38.251 84.8682 34.9443C87.2656 31.6377 90.4483 29.1163 94.4163 27.3803C98.3843 25.5617 102.931 24.6523 108.056 24.6523C113.512 24.6523 118.266 25.6443 122.316 27.6283C126.45 29.5297 129.591 32.299 131.74 35.9363C133.972 39.491 135.088 43.6657 135.088 48.4603V74.0043C135.088 75.823 135.46 77.1457 136.204 77.9723C136.948 78.7163 138.023 79.0883 139.428 79.0883C140.007 79.0883 140.668 79.0057 141.412 78.8403V90.0003C139.098 90.4963 136.99 90.7443 135.088 90.7443C131.699 90.7443 128.93 89.9177 126.78 88.2643C124.631 86.5283 123.432 83.9657 123.184 80.5763C121.614 83.8003 118.968 86.363 115.248 88.2643C111.528 90.083 107.23 90.9923 102.352 90.9923ZM104.46 80.4523C109.916 80.4523 114.174 78.7577 117.232 75.3683C120.374 71.8963 121.944 67.3497 121.944 61.7283V59.3723L104.46 62.2243C100.906 62.7203 98.2189 63.795 96.4003 65.4483C94.5816 67.1017 93.6722 69.2923 93.6722 72.0203C93.6722 74.5003 94.6642 76.5257 96.6482 78.0963C98.6322 79.667 101.236 80.4523 104.46 80.4523Z" fill="black"></path>
<path d="M57.8442 0.595703H72.1042V89.9997H57.8442V49.5757H14.9402V89.9997H0.556152V0.595703H14.9402V36.8037H57.8442V0.595703Z" fill="black"></path>
</svg>