<svg xmlns="http://www.w3.org/2000/svg"  xmlns:xlink="http://www.w3.org/1999/xlink"  width="46" height="45" viewBox="0 0 46 45" fill="none" id="svg1689134417_700">
<path d="M8.29853 9.66797C3.41726 11.8129 0 16.7599 0 22.5226C0 28.2852 3.41726 33.2284 8.29853 35.3771V9.66797Z" fill="black"></path>
<path d="M36.7449 9.66797C41.6262 11.8129 45.0435 16.7599 45.0435 22.5226C45.0435 28.2852 41.6262 33.2284 36.7449 35.3771V9.66797Z" fill="black"></path>
<path d="M35.3776 8.29883C33.2324 3.41756 28.2847 0.000295779 22.5212 0.000296031C16.7576 0.000296283 11.8137 3.41756 9.66846 8.29883L35.3776 8.29883Z" fill="black"></path>
<path d="M9.66582 36.7012C11.8111 41.5824 16.7588 44.9997 22.5223 44.9997C28.2858 44.9997 33.2297 41.5824 35.375 36.7012L9.66582 36.7012Z" fill="black"></path>
</svg>